<svg width="1497" height="1417" viewBox="0 0 1497 1417" fill="none" xmlns="http://www.w3.org/2000/svg">
<ellipse cx="748.5" cy="708.5" rx="748.5" ry="708.5" fill="url(#paint0_linear_19_2)"/>
<mask id="mask0_19_2" style="mask-type:luminance" maskUnits="userSpaceOnUse" x="0" y="0" width="1497" height="1417">
<ellipse cx="748.5" cy="708.5" rx="748.5" ry="708.5" fill="white"/>
</mask>
<g mask="url(#mask0_19_2)">
<path fill-rule="evenodd" clip-rule="evenodd" d="M663.619 715.804C680.665 715.804 694.484 728.885 694.484 745.021C694.484 761.157 680.665 774.237 663.619 774.237H462.99L462.991 774.262C446.54 774.9 433.41 787.725 433.41 803.454C433.41 819.182 446.54 832.008 462.991 832.645L462.99 832.67H874.536C891.583 832.67 905.402 845.751 905.402 861.887C905.402 878.022 891.583 891.103 874.536 891.103H213.49C196.443 891.103 182.624 878.022 182.624 861.887C182.624 845.751 196.443 832.67 213.49 832.67H339.526C356.573 832.67 370.392 819.59 370.392 803.454C370.392 787.318 356.573 774.237 339.526 774.237H262.361C245.314 774.237 231.495 761.157 231.495 745.021C231.495 728.885 245.314 715.804 262.361 715.804H663.619ZM136.325 949.536C153.372 949.536 167.191 962.617 167.191 978.753C167.191 994.888 153.372 1007.97 136.325 1007.97H-51.4433C-68.4901 1007.97 -82.3093 994.888 -82.3093 978.753C-82.3093 962.617 -68.4901 949.536 -51.4433 949.536H136.325ZM874.536 949.536C891.583 949.536 905.402 962.617 905.402 978.753C905.402 994.888 891.583 1007.97 874.536 1007.97H686.768C669.721 1007.97 655.902 994.888 655.902 978.753C655.902 962.617 669.721 949.536 686.768 949.536H874.536ZM1553.59 978.753C1553.59 962.617 1539.77 949.536 1522.72 949.536H1095.74C1078.7 949.536 1064.88 962.617 1064.88 978.753C1064.88 994.888 1078.7 1007.97 1095.74 1007.97H1522.72C1539.77 1007.97 1553.59 994.888 1553.59 978.753ZM1064.88 774.237C1081.92 774.237 1095.74 787.318 1095.74 803.454C1095.74 819.59 1081.92 832.67 1064.88 832.67H1041.73C1024.68 832.67 1010.86 845.751 1010.86 861.887C1010.86 878.022 1024.68 891.103 1041.73 891.103H1702.77C1719.82 891.103 1733.64 878.022 1733.64 861.887C1733.64 845.751 1719.82 832.67 1702.77 832.67H1188.34L1188.34 832.645C1171.89 832.008 1158.76 819.182 1158.76 803.454C1158.76 787.725 1171.89 774.9 1188.34 774.262L1188.34 774.237H1250.07C1267.12 774.237 1280.94 761.157 1280.94 745.021C1280.94 728.885 1267.12 715.804 1250.07 715.804H848.814C831.768 715.804 817.948 728.885 817.948 745.021C817.948 761.157 831.768 774.237 848.814 774.237H1064.88ZM97.7422 715.804C114.789 715.804 128.608 728.885 128.608 745.021C128.608 761.157 114.789 774.237 97.7422 774.237H-303.515C-320.562 774.237 -334.381 761.157 -334.381 745.021C-334.381 728.885 -320.562 715.804 -303.515 715.804H97.7422ZM1831.38 745.021C1831.38 728.885 1817.56 715.804 1800.52 715.804H1399.26C1382.21 715.804 1368.39 728.885 1368.39 745.021C1368.39 761.157 1382.21 774.237 1399.26 774.237H1800.52C1817.56 774.237 1831.38 761.157 1831.38 745.021Z" fill="#FAB96D"/>
</g>
<mask id="mask1_19_2" style="mask-type:luminance" maskUnits="userSpaceOnUse" x="0" y="0" width="1497" height="1417">
<ellipse cx="748.5" cy="708.5" rx="748.5" ry="708.5" fill="white"/>
</mask>
<g mask="url(#mask1_19_2)">
<path d="M408.974 978.753C408.974 962.617 395.155 949.536 378.108 949.536H303.515C286.469 949.536 272.649 936.455 272.649 920.32C272.649 904.184 286.469 891.103 303.515 891.103H563.304C580.351 891.103 594.17 904.184 594.17 920.32C594.17 936.455 580.351 949.536 563.304 949.536H555.588L555.585 949.561C539.136 950.201 526.008 963.026 526.008 978.753C526.008 994.48 539.136 1007.3 555.585 1007.94L555.588 1007.97H563.304C580.351 1007.97 594.17 1021.05 594.17 1037.19C594.17 1053.32 580.351 1066.4 563.304 1066.4H367.82C350.773 1066.4 336.954 1053.32 336.954 1037.19C336.954 1021.05 350.773 1007.97 367.82 1007.97H378.108C395.155 1007.97 408.974 994.888 408.974 978.753Z" fill="#D83A34"/>
</g>
<mask id="mask2_19_2" style="mask-type:luminance" maskUnits="userSpaceOnUse" x="0" y="0" width="1497" height="1417">
<ellipse cx="748.5" cy="708.5" rx="748.5" ry="708.5" fill="white"/>
</mask>
<g mask="url(#mask2_19_2)">
<path fill-rule="evenodd" clip-rule="evenodd" d="M1198.63 131.474C1181.58 131.474 1167.76 144.555 1167.76 160.691C1167.76 176.826 1181.58 189.907 1198.63 189.907H1599.89C1616.93 189.907 1630.75 176.826 1630.75 160.691C1630.75 144.555 1616.93 131.474 1599.89 131.474H1198.63ZM632.753 131.474C615.706 131.474 601.887 144.555 601.887 160.691C601.887 176.827 615.706 189.907 632.753 189.907H833.381L833.38 189.932C849.831 190.57 862.961 203.395 862.961 219.124C862.961 234.852 849.831 247.678 833.38 248.315L833.381 248.34H421.835C404.788 248.34 390.969 261.421 390.969 277.557C390.969 293.693 404.788 306.773 421.835 306.773H1082.88C1099.93 306.773 1113.75 293.693 1113.75 277.557C1113.75 261.421 1099.93 248.34 1082.88 248.34H956.845C939.799 248.34 925.979 235.26 925.979 219.124C925.979 202.988 939.799 189.907 956.845 189.907H1034.01C1051.06 189.907 1064.88 176.827 1064.88 160.691C1064.88 144.555 1051.06 131.474 1034.01 131.474H632.753ZM1160.05 365.206C1143 365.206 1129.18 378.287 1129.18 394.423C1129.18 410.559 1143 423.639 1160.05 423.639H1347.81C1364.86 423.639 1378.68 410.559 1378.68 394.423C1378.68 378.287 1364.86 365.206 1347.81 365.206H1160.05ZM421.835 365.206C404.788 365.206 390.969 378.287 390.969 394.423C390.969 410.559 404.788 423.639 421.835 423.639H609.603C626.65 423.639 640.469 410.559 640.469 394.423C640.469 378.287 626.65 365.206 609.603 365.206H421.835ZM-257.216 394.423C-257.216 378.287 -243.397 365.206 -226.35 365.206H200.629C217.676 365.206 231.495 378.287 231.495 394.423C231.495 410.559 217.676 423.639 200.629 423.639H-226.35C-243.397 423.639 -257.216 410.559 -257.216 394.423ZM231.495 189.907C214.448 189.907 200.629 202.988 200.629 219.124C200.629 235.26 214.448 248.34 231.495 248.34H254.644C271.691 248.34 285.51 261.421 285.51 277.557C285.51 293.693 271.691 306.773 254.644 306.773H-406.402C-423.449 306.773 -437.268 293.693 -437.268 277.557C-437.268 261.421 -423.449 248.34 -406.402 248.34H108.031L108.03 248.315C124.481 247.678 137.611 234.852 137.611 219.124C137.611 203.395 124.481 190.57 108.03 189.932L108.031 189.907H46.299C29.2522 189.907 15.433 176.827 15.433 160.691C15.433 144.555 29.2522 131.474 46.299 131.474H447.557C464.604 131.474 478.423 144.555 478.423 160.691C478.423 176.827 464.604 189.907 447.557 189.907H231.495ZM-535.01 160.691C-535.01 144.555 -521.191 131.474 -504.144 131.474H-102.887C-85.8398 131.474 -72.0206 144.555 -72.0206 160.691C-72.0206 176.827 -85.8398 189.907 -102.887 189.907H-504.144C-521.191 189.907 -535.01 176.827 -535.01 160.691Z" fill="#EFA73B"/>
<path fill-rule="evenodd" clip-rule="evenodd" d="M1702.64 131.474C1685.59 131.474 1671.77 144.555 1671.77 160.691C1671.77 176.826 1685.59 189.907 1702.64 189.907H2103.9C2120.94 189.907 2134.76 176.826 2134.76 160.691C2134.76 144.555 2120.94 131.474 2103.9 131.474H1702.64ZM1136.76 131.474C1119.72 131.474 1105.9 144.555 1105.9 160.691C1105.9 176.827 1119.72 189.907 1136.76 189.907H1337.39L1337.39 189.932C1353.84 190.57 1366.97 203.395 1366.97 219.124C1366.97 234.852 1353.84 247.678 1337.39 248.315L1337.39 248.34H925.846C908.799 248.34 894.98 261.421 894.98 277.557C894.98 293.693 908.799 306.773 925.846 306.773H1586.89C1603.94 306.773 1617.76 293.693 1617.76 277.557C1617.76 261.421 1603.94 248.34 1586.89 248.34H1460.86C1443.81 248.34 1429.99 235.26 1429.99 219.124C1429.99 202.988 1443.81 189.907 1460.86 189.907H1538.02C1555.07 189.907 1568.89 176.827 1568.89 160.691C1568.89 144.555 1555.07 131.474 1538.02 131.474H1136.76ZM1664.06 365.206C1647.01 365.206 1633.19 378.287 1633.19 394.423C1633.19 410.559 1647.01 423.639 1664.06 423.639H1851.82C1868.87 423.639 1882.69 410.559 1882.69 394.423C1882.69 378.287 1868.87 365.206 1851.82 365.206H1664.06ZM925.846 365.206C908.799 365.206 894.979 378.287 894.979 394.423C894.979 410.559 908.799 423.639 925.846 423.639H1113.61C1130.66 423.639 1144.48 410.559 1144.48 394.423C1144.48 378.287 1130.66 365.206 1113.61 365.206H925.846ZM246.794 394.423C246.794 378.287 260.613 365.206 277.66 365.206H704.639C721.686 365.206 735.505 378.287 735.505 394.423C735.505 410.559 721.686 423.639 704.639 423.639H277.66C260.613 423.639 246.794 410.559 246.794 394.423ZM735.505 189.907C718.459 189.907 704.639 202.988 704.639 219.124C704.639 235.26 718.459 248.34 735.505 248.34H758.655C775.702 248.34 789.521 261.421 789.521 277.557C789.521 293.693 775.702 306.773 758.655 306.773H97.6085C80.5618 306.773 66.7424 293.693 66.7424 277.557C66.7424 261.421 80.5618 248.34 97.6085 248.34H612.042L612.041 248.315C628.491 247.678 641.621 234.852 641.621 219.124C641.621 203.395 628.491 190.57 612.041 189.932L612.042 189.907H550.309C533.263 189.907 519.443 176.827 519.443 160.691C519.443 144.555 533.263 131.474 550.309 131.474H951.567C968.614 131.474 982.433 144.555 982.433 160.691C982.433 176.827 968.614 189.907 951.567 189.907H735.505ZM-30.9998 160.691C-30.9998 144.555 -17.1807 131.474 -0.133789 131.474H401.124C418.171 131.474 431.99 144.555 431.99 160.691C431.99 176.827 418.171 189.907 401.124 189.907H-0.133789C-17.1807 189.907 -30.9998 176.827 -30.9998 160.691Z" fill="#EFA73B"/>
</g>
<mask id="mask3_19_2" style="mask-type:luminance" maskUnits="userSpaceOnUse" x="0" y="0" width="1497" height="1417">
<ellipse cx="748.5" cy="708.5" rx="748.5" ry="708.5" fill="white"/>
</mask>
<g mask="url(#mask3_19_2)">
<path fill-rule="evenodd" clip-rule="evenodd" d="M1039.15 1066.4C1022.11 1066.4 1008.29 1079.48 1008.29 1095.62C1008.29 1111.75 1022.11 1124.84 1039.15 1124.84H1239.78L1239.78 1124.86C1256.23 1125.5 1269.36 1138.32 1269.36 1154.05C1269.36 1169.78 1256.23 1182.61 1239.78 1183.24L1239.78 1183.27H828.237C811.19 1183.27 797.371 1196.35 797.371 1212.48C797.371 1228.62 811.19 1241.7 828.237 1241.7H1489.28C1506.33 1241.7 1520.15 1228.62 1520.15 1212.48C1520.15 1196.35 1506.33 1183.27 1489.28 1183.27H1363.25C1346.2 1183.27 1332.38 1170.19 1332.38 1154.05C1332.38 1137.92 1346.2 1124.84 1363.25 1124.84H1440.41C1457.46 1124.84 1471.28 1111.75 1471.28 1095.62C1471.28 1079.48 1457.46 1066.4 1440.41 1066.4H1039.15ZM1566.45 1300.13C1549.4 1300.13 1535.58 1313.21 1535.58 1329.35C1535.58 1345.49 1549.4 1358.57 1566.45 1358.57H1754.22C1771.26 1358.57 1785.08 1345.49 1785.08 1329.35C1785.08 1313.21 1771.26 1300.13 1754.22 1300.13H1566.45ZM828.237 1300.13C811.19 1300.13 797.371 1313.21 797.371 1329.35C797.371 1345.49 811.19 1358.57 828.237 1358.57H1016.01C1033.05 1358.57 1046.87 1345.49 1046.87 1329.35C1046.87 1313.21 1033.05 1300.13 1016.01 1300.13H828.237ZM149.186 1329.35C149.186 1313.21 163.005 1300.13 180.052 1300.13H607.031C624.078 1300.13 637.897 1313.21 637.897 1329.35C637.897 1345.49 624.078 1358.57 607.031 1358.57H180.052C163.005 1358.57 149.186 1345.49 149.186 1329.35ZM637.897 1124.84C620.85 1124.84 607.031 1137.92 607.031 1154.05C607.031 1170.19 620.85 1183.27 637.897 1183.27H661.046C678.093 1183.27 691.912 1196.35 691.912 1212.48C691.912 1228.62 678.093 1241.7 661.046 1241.7H0C-17.0469 1241.7 -30.866 1228.62 -30.866 1212.48C-30.866 1196.35 -17.0469 1183.27 0 1183.27H514.433L514.432 1183.24C530.883 1182.61 544.013 1169.78 544.013 1154.05C544.013 1138.32 530.883 1125.5 514.432 1124.86L514.433 1124.84H452.701C435.654 1124.84 421.835 1111.75 421.835 1095.62C421.835 1079.48 435.654 1066.4 452.701 1066.4H853.959C871.005 1066.4 884.825 1079.48 884.825 1095.62C884.825 1111.75 871.005 1124.84 853.959 1124.84H637.897ZM1605.03 1066.4C1587.98 1066.4 1574.17 1079.48 1574.17 1095.62C1574.17 1111.75 1587.98 1124.84 1605.03 1124.84H2006.29C2023.34 1124.84 2037.15 1111.75 2037.15 1095.62C2037.15 1079.48 2023.34 1066.4 2006.29 1066.4H1605.03ZM-128.608 1095.62C-128.608 1079.48 -114.789 1066.4 -97.7422 1066.4H303.516C320.562 1066.4 334.381 1079.48 334.381 1095.62C334.381 1111.75 320.562 1124.84 303.516 1124.84H-97.7422C-114.789 1124.84 -128.608 1111.75 -128.608 1095.62Z" fill="#F29D7B"/>
<path fill-rule="evenodd" clip-rule="evenodd" d="M800.763 1066.4C783.716 1066.4 769.897 1079.48 769.897 1095.62C769.897 1111.75 783.716 1124.84 800.763 1124.84H1001.39L1001.39 1124.86C1017.84 1125.5 1030.97 1138.32 1030.97 1154.05C1030.97 1169.78 1017.84 1182.61 1001.39 1183.24L1001.39 1183.27H589.845C572.798 1183.27 558.979 1196.35 558.979 1212.48C558.979 1228.62 572.798 1241.7 589.845 1241.7H1250.89C1267.94 1241.7 1281.76 1228.62 1281.76 1212.48C1281.76 1196.35 1267.94 1183.27 1250.89 1183.27H1124.86C1107.81 1183.27 1093.99 1170.19 1093.99 1154.05C1093.99 1137.92 1107.81 1124.84 1124.86 1124.84H1202.02C1219.07 1124.84 1232.89 1111.75 1232.89 1095.62C1232.89 1079.48 1219.07 1066.4 1202.02 1066.4H800.763ZM1328.06 1300.13C1311.01 1300.13 1297.19 1313.21 1297.19 1329.35C1297.19 1345.49 1311.01 1358.57 1328.06 1358.57H1515.82C1532.87 1358.57 1546.69 1345.49 1546.69 1329.35C1546.69 1313.21 1532.87 1300.13 1515.82 1300.13H1328.06ZM589.845 1300.13C572.798 1300.13 558.979 1313.21 558.979 1329.35C558.979 1345.49 572.798 1358.57 589.845 1358.57H777.613C794.66 1358.57 808.479 1345.49 808.479 1329.35C808.479 1313.21 794.66 1300.13 777.613 1300.13H589.845ZM-89.2063 1329.35C-89.2063 1313.21 -75.3872 1300.13 -58.3403 1300.13H368.639C385.686 1300.13 399.505 1313.21 399.505 1329.35C399.505 1345.49 385.686 1358.57 368.639 1358.57H-58.3403C-75.3872 1358.57 -89.2063 1345.49 -89.2063 1329.35ZM399.505 1124.84C382.458 1124.84 368.639 1137.92 368.639 1154.05C368.639 1170.19 382.458 1183.27 399.505 1183.27H422.655C439.701 1183.27 453.521 1196.35 453.521 1212.48C453.521 1228.62 439.701 1241.7 422.655 1241.7H-238.392C-255.439 1241.7 -269.258 1228.62 -269.258 1212.48C-269.258 1196.35 -255.439 1183.27 -238.392 1183.27H276.041L276.04 1183.24C292.491 1182.61 305.621 1169.78 305.621 1154.05C305.621 1138.32 292.491 1125.5 276.04 1124.86L276.041 1124.84H214.309C197.262 1124.84 183.443 1111.75 183.443 1095.62C183.443 1079.48 197.262 1066.4 214.309 1066.4H615.567C632.614 1066.4 646.433 1079.48 646.433 1095.62C646.433 1111.75 632.614 1124.84 615.567 1124.84H399.505ZM1366.64 1066.4C1349.59 1066.4 1335.77 1079.48 1335.77 1095.62C1335.77 1111.75 1349.59 1124.84 1366.64 1124.84H1767.9C1784.94 1124.84 1798.76 1111.75 1798.76 1095.62C1798.76 1079.48 1784.94 1066.4 1767.9 1066.4H1366.64ZM-367 1095.62C-367 1079.48 -353.181 1066.4 -336.134 1066.4H65.1237C82.1704 1066.4 95.9896 1079.48 95.9896 1095.62C95.9896 1111.75 82.1704 1124.84 65.1237 1124.84H-336.134C-353.181 1124.84 -367 1111.75 -367 1095.62Z" fill="#F9CC73"/>
</g>
<mask id="mask4_19_2" style="mask-type:luminance" maskUnits="userSpaceOnUse" x="0" y="0" width="1497" height="1417">
<ellipse cx="748.5" cy="708.5" rx="748.5" ry="708.5" fill="white"/>
</mask>
<g mask="url(#mask4_19_2)">
<path fill-rule="evenodd" clip-rule="evenodd" d="M317.71 540.505C330.374 540.505 340.64 553.586 340.64 569.722C340.64 585.858 330.374 598.938 317.71 598.938H298.602C285.939 598.938 275.673 612.019 275.673 628.155C275.673 644.291 285.939 657.371 298.602 657.371H468.664C481.328 657.371 491.594 644.291 491.594 628.155C491.594 612.019 481.328 598.938 468.664 598.938H449.556L449.554 598.913C437.335 598.273 427.582 585.449 427.582 569.722C427.582 553.995 437.335 541.17 449.554 540.53L449.556 540.505H573.758C586.422 540.505 596.688 527.425 596.688 511.289C596.688 495.153 586.422 482.072 573.758 482.072H193.508C180.844 482.072 170.578 495.153 170.578 511.289C170.578 527.425 180.844 540.505 193.508 540.505H317.71ZM229.813 628.155C229.813 612.019 219.547 598.938 206.884 598.938H88.4138C75.7501 598.938 65.4841 612.019 65.4841 628.155C65.4841 644.291 75.7501 657.371 88.4138 657.371H206.884C219.547 657.371 229.813 644.291 229.813 628.155ZM-3.30485 598.938C9.35886 598.938 19.6248 612.019 19.6248 628.155C19.6248 644.291 9.35886 657.371 -3.30485 657.371H-56.8074C-69.4711 657.371 -79.7371 644.291 -79.7371 628.155C-79.7371 612.019 -69.4711 598.938 -56.8074 598.938H-3.30485ZM904.328 628.155C904.328 612.019 894.062 598.938 881.398 598.938H560.383C547.719 598.938 537.453 612.019 537.453 628.155C537.453 644.291 547.719 657.371 560.383 657.371H881.398C894.062 657.371 904.328 644.291 904.328 628.155ZM1026.62 598.938C1039.28 598.938 1049.55 612.019 1049.55 628.155C1049.55 644.291 1039.28 657.371 1026.62 657.371H973.117C960.453 657.371 950.187 644.291 950.187 628.155C950.187 612.019 960.453 598.938 973.117 598.938H1026.62ZM959.741 511.289C959.741 495.153 949.475 482.072 936.811 482.072H665.477C652.813 482.072 642.547 495.153 642.547 511.289C642.547 527.425 652.813 540.505 665.477 540.505H936.811C949.475 540.505 959.741 527.425 959.741 511.289ZM1124.07 482.072C1136.73 482.072 1147 495.153 1147 511.289C1147 527.425 1136.73 540.505 1124.07 540.505H1028.53C1015.87 540.505 1005.6 527.425 1005.6 511.289C1005.6 495.153 1015.87 482.072 1028.53 482.072H1124.07ZM78.8597 511.289C78.8597 495.153 68.5938 482.072 55.9301 482.072H2.42753C-10.2362 482.072 -20.5021 495.153 -20.5021 511.289C-20.5021 527.425 -10.2362 540.505 2.42753 540.505H55.9301C68.5938 540.505 78.8597 527.425 78.8597 511.289Z" fill="#D14C32"/>
<path fill-rule="evenodd" clip-rule="evenodd" d="M976.448 540.505C989.111 540.505 999.377 553.586 999.377 569.722C999.377 585.858 989.111 598.938 976.448 598.938H957.339C944.676 598.938 934.41 612.019 934.41 628.155C934.41 644.291 944.676 657.371 957.339 657.371H1127.4C1140.06 657.371 1150.33 644.291 1150.33 628.155C1150.33 612.019 1140.06 598.938 1127.4 598.938H1108.29L1108.29 598.913C1096.07 598.273 1086.32 585.449 1086.32 569.722C1086.32 553.995 1096.07 541.17 1108.29 540.53L1108.29 540.505H1232.5C1245.16 540.505 1255.43 527.425 1255.43 511.289C1255.43 495.153 1245.16 482.072 1232.5 482.072H852.245C839.581 482.072 829.316 495.153 829.316 511.289C829.316 527.425 839.581 540.505 852.245 540.505H976.448ZM888.55 628.155C888.55 612.019 878.284 598.938 865.621 598.938H747.151C734.487 598.938 724.221 612.019 724.221 628.155C724.221 644.291 734.487 657.371 747.151 657.371H865.621C878.284 657.371 888.55 644.291 888.55 628.155ZM655.432 598.938C668.096 598.938 678.362 612.019 678.362 628.155C678.362 644.291 668.096 657.371 655.432 657.371H601.93C589.266 657.371 579 644.291 579 628.155C579 612.019 589.266 598.938 601.93 598.938H655.432ZM1563.06 628.155C1563.06 612.019 1552.8 598.938 1540.14 598.938H1219.12C1206.46 598.938 1196.19 612.019 1196.19 628.155C1196.19 644.291 1206.46 657.371 1219.12 657.371H1540.14C1552.8 657.371 1563.06 644.291 1563.06 628.155ZM1685.36 598.938C1698.02 598.938 1708.29 612.019 1708.29 628.155C1708.29 644.291 1698.02 657.371 1685.36 657.371H1631.85C1619.19 657.371 1608.92 644.291 1608.92 628.155C1608.92 612.019 1619.19 598.938 1631.85 598.938H1685.36ZM1618.48 511.289C1618.48 495.153 1608.21 482.072 1595.55 482.072H1324.21C1311.55 482.072 1301.28 495.153 1301.28 511.289C1301.28 527.425 1311.55 540.505 1324.21 540.505H1595.55C1608.21 540.505 1618.48 527.425 1618.48 511.289ZM1782.81 482.072C1795.47 482.072 1805.74 495.153 1805.74 511.289C1805.74 527.425 1795.47 540.505 1782.81 540.505H1687.27C1674.6 540.505 1664.34 527.425 1664.34 511.289C1664.34 495.153 1674.6 482.072 1687.27 482.072H1782.81ZM737.597 511.289C737.597 495.153 727.331 482.072 714.667 482.072H661.165C648.501 482.072 638.235 495.153 638.235 511.289C638.235 527.425 648.501 540.505 661.165 540.505H714.667C727.331 540.505 737.597 527.425 737.597 511.289Z" fill="#D14C32"/>
</g>
<defs>
<linearGradient id="paint0_linear_19_2" x1="365" y1="109.5" x2="1168.5" y2="1271" gradientUnits="userSpaceOnUse">
<stop offset="0.00311368" stop-color="#FFCC90"/>
<stop offset="0.171875" stop-color="#FFCC90"/>
<stop offset="0.526656" stop-color="#EA9760"/>
<stop offset="1" stop-color="#CD5120"/>
</linearGradient>
</defs>
</svg>
